# xmcd
#
# Track frame offsets:
#	150
#	12491
#	24089
#	37691
#	54009
#	66726
#	80164
#	92781
#	106415
#	120090
#	133579
#	147260
#	160688
#	174269
#	188759
#
# Disc length: 2687
#
# Revision: 3
# Processed by: cddbd v1.5.1PL0 Copyright (c) Steve Scherf et al.
# Submitted via: WhereIsIt 3.51
# Normalized: r1:DSETVAR1,TDELIM( - ),TSWAP
#
DISCID=b50a7d0f
DTITLE=Various Artist - Nothing But the Blues: Disc 01
DYEAR=1900
DGENRE=Blues
TTITLE0=Little Brother Montgomery - Chinese Man Blues
TTITLE1=Little Brother Montgomery - Crescent City Blues
TTITLE2=Tommy Ladnier - Weary Blues
TTITLE3=Tommy Ladnier - Really The Blues
TTITLE4=Jelly Roll Morton - Mamie's Blues
TTITLE5=Jelly Roll Morton - Winin' Boy
TTITLE6=Jelly Roll Morton - New Orleans Joys
TTITLE7=Muggsy Spanier And His Ragtime Band - Beale Street Blues
TTITLE8=Benny Goodman - Livery Stable Blues
TTITLE9=Ann Cook - Mama Cookie
TTITLE10=Ann Cook - He's The Sweetest Black Man In Town
TTITLE11=Kid Ory And His Orchestra - Fifty-Fifty Blues
TTITLE12=Louis Armstrong - I'm Not Rough
TTITLE13=King Oliver - Snag it
TTITLE14=Lester Young - Jeeps Blues
EXTD=
EXTT0=
EXTT1=
EXTT2=
EXTT3=
EXTT4=
EXTT5=
EXTT6=
EXTT7=
EXTT8=
EXTT9=
EXTT10=
EXTT11=
EXTT12=
EXTT13=
EXTT14=
PLAYORDER=
